<?xml version="1.0" encoding="UTF-8" standalone="no"?>
<svg
   viewBox="484.73 974.18 3120.909 2099.5307"
   version="1.1"
   id="svg323"
   sodipodi:docname="icon.svg"
   width="3120.9089"
   height="2099.5308"
   inkscape:version="1.4.2 (ebf0e940, 2025-05-08)"
   xmlns:inkscape="http://www.inkscape.org/namespaces/inkscape"
   xmlns:sodipodi="http://sodipodi.sourceforge.net/DTD/sodipodi-0.dtd"
   xmlns="http://www.w3.org/2000/svg"
   xmlns:svg="http://www.w3.org/2000/svg">
  <sodipodi:namedview
     id="namedview323"
     pagecolor="#ffffff"
     bordercolor="#000000"
     borderopacity="0.25"
     inkscape:showpageshadow="2"
     inkscape:pageopacity="0.0"
     inkscape:pagecheckerboard="0"
     inkscape:deskcolor="#d1d1d1"
     inkscape:zoom="0.2231205"
     inkscape:cx="528.8622"
     inkscape:cy="1299.7461"
     inkscape:window-width="2056"
     inkscape:window-height="1147"
     inkscape:window-x="0"
     inkscape:window-y="44"
     inkscape:window-maximized="1"
     inkscape:current-layer="svg323" />
  <style
     id="style1"><![CDATA[.B{fill:#993fce}.C{fill:#852ebb}.D{fill:#8e39b9}.E{fill:#9339ca}]]></style>
  <path
     id="path1"
     class="D"
     d="m 3262.2834,974.22229 c -35.7241,-0.88435 -81.5277,12.3284 -113.7207,18.2539 l -105.791,18.50001 -5.7657,1.0586 -84.3242,14.3359 c -18.26,3.368 -36.1157,8.6562 -54.3437,12.0762 -15.684,2.944 -31.6588,4.3773 -47.3828,7.1933 -123.02,21.636 -245.4207,46.6702 -367.0567,75.0782 -21.124,5.1 -42.9927,6.468 -63.9687,12.164 -35.6,11.72 -73.7192,17.0448 -110.2032,25.3008 -19.664,4.448 -39.0078,11.8194 -58.7558,15.6074 -5.636,1.08 -11.717,0.1045 -17.377,-0.3515 -23.14,-1.872 -36.8721,-0.4551 -58.3281,8.8769 0.136,3.892 -0.024,1.9439 0.4844,5.8399 -3.32,0.34 -4.7633,0.1958 -8.0313,-0.6602 -7.808,-2.048 -23.1649,6.0234 -31.2929,8.1914 -38.248,10.196 -77.876,21.4395 -117.168,26.0234 -4.048,3.132 -8.8196,8.6566 -13.9316,8.3926 l -1.4473,-1.5996 c -3.504,-3.804 -5.9279,-6.7126 -11.0039,-8.3926 l -3.0996,1.293 2.8027,5.0801 c -55.068,11.96 -111.2435,32.4825 -167.5195,35.1465 l -1.4512,6.5937 c -5.764,2.072 -9.1044,0.9915 -14.7324,-0.5605 l -24.6524,8.9922 c -16.648,6.304 -35.4239,3.0795 -52.5039,7.3515 -36.224,9.056 -71.7323,23.2869 -108.4843,30.8789 -10.456,2.16 -28.2715,-9.4479 -36.7715,-5.3359 -8.08,3.904 -13.4763,11.1214 -22.4883,14.5254 -0.772,-0.376 -1.5325,-0.7769 -2.3125,-1.1289 -14.888,-6.736 -68.1475,20.2597 -73.6035,11.0957 -1.452,-2.432 -0.785,-1.5682 -3.209,-3.3242 l -7.6582,8.0605 c -7.4999,2.2 -21.4799,2.6319 -27.332,6.7598 -43.78,-2.604 -104.1646,17.9092 -148.0606,27.9492 -17.516,4.0082 -35.6801,6.4036 -53.4199,9.3672 -14.0725,11.2833 -200.5098,47.4963 -227.3516,51.7207 -6.26,0.988 -12.536,0.5638 -18.832,0.2558 l -20.10546,-1.2207 -2.31055,2.545 c -2.02,2.192 -3.91745,4.0669 -6.18945,5.9629 -5.256,-1.2 -7.71144,-6.8041 -11.52344,-10.6641 3.152,-11.576 19.95153,-19.7905 30.01953,-25.5625 l 7.78125,-4.3535 c -15.304,-2.068 -68.63667,-6.391 -80.88867,1.289 -3.2,2.004 -6.42314,5.4993 -9.11914,8.1153 l -4.82813,0.037 -0.2207,-5.6016 c -4.652,0.304 -6.68072,2.5689 -10.13672,5.4649 l -3.34375,-0.125 c -24.98,-0.768 -51.35486,1.6938 -76.13086,4.8418 -42.168,5.356 -84.00782,15.472 -125.92382,22.58 -33.664,5.708 -171.72143,21.7476 -191.85743,38.6836 -11.964,10.06 -13.25543,36.6994 -12.52343,51.1914 1.064,20.976 5.99186,41.9482 9.75586,62.5762 l 1.60742,9.3281 c 0.108,31.348 33.57289,203.144 47.21289,234.92 8.728,20.336 29.48311,33.0843 35.78711,53.4843 4.988,16.14 -0.60766,34.8358 2.65234,51.6758 0.356,8.2839 0.60418,16.247 2.41211,24.3789 0.036,0.696 0.0834,1.3879 0.10742,2.0879 0.46,15.272 -7.30278,28.3162 -6.55078,43.6602 0.924,18.804 13.2587,39.3531 16.9707,58.2851 8.24,42.048 7.69707,92.0909 7.28907,134.9629 6.54,9.868 14.83117,18.8492 12.45117,31.3652 -0.368,1.932 -0.89502,3.8318 -1.29102,5.7598 -2.46,12.044 14.00749,65.6069 17.77149,81.3789 4.924,20.616 10.1075,41.2248 13.6875,62.1328 3.312,19.336 4.90043,39.2196 9.14843,58.3516 5.012,22.572 14.28407,43.2728 17.66407,66.3848 3.2,21.88 15.3554,130.548 22.1914,141.248 2.464,3.86 5.92907,7.9192 10.28907,9.5352 0.35599,11.2478 0.85237,22.2925 2.15234,33.4843 1.62,14.588 1.29186,30.6357 5.75586,44.5957 0.196,14.1438 -0.34929,28.5355 2.97851,42.3672 v 0 h 0.002 c 3.616,19.064 9.56659,37.9518 12.55859,57.0078 7.18,45.688 16.69989,209.0268 48.58789,231.2988 12.512,8.74 37.51966,4.8366 51.84766,2.5606 24.888,-3.948 49.72433,-11.0835 74.23633,-16.9395 l 117.72464,-27.6406 101.0352,-21.2402 174.3359,-40.2071 135.3887,-29.9922 c 12.372,-2.632 28.3925,-2.5402 39.8965,-6.6562 1.74,-0.624 2.4039,-1.1273 3.8359,-2.0313 l 1.8164,-1.3613 c 18.8037,-2.672 37.1832,-8.1602 55.8789,-11.5762 l 94.1328,-19.1718 c 14.5079,-3.128 28.819,-4.4405 43.2149,-8.4844 0.848,-0.016 1.7211,0.169 2.5371,-0.043 67.472,-17.264 136.6205,-31.5685 203.8125,-50.3965 8.8559,-1.9599 17.6678,-4.1111 26.4277,-6.455 l 570.4043,-126.6973 152.5039,-34.7305 c 22.656,-5.14 49.3599,-14.6294 72.5039,-14.8574 5.42,-0.052 7.6523,0.2157 11.4043,4.0957 l -0.9043,9.1367 2.0996,1.3848 c 4.488,0.192 5.7834,1.1638 9.5274,-1.5762 -1.432,-1.184 -4.3186,-3.4961 -5.4746,-4.8281 -2.952,-3.416 -2.6338,-5.6166 -2.5938,-9.8086 l 4.6485,-3.3281 9.7363,-1.0957 c 30.896,-6.616 62.0042,-10.64 92.9082,-16.836 a 6300.77,6300.77 0 0 0 208.3926,-45.8398 c 21.792,-4.996 44.2266,-5.4286 65.7226,-11.8086 18.8159,-2.144 37.4448,-7.6923 55.9727,-11.6563 14.54,2.684 40.392,-3.1628 54.584,-7.6308 21.5038,-2.836 42.5399,-8.5567 64.2597,-11.2207 17.148,1.3 102.7805,-16.0488 124.1485,-19.5528 31.376,-5.148 62.4716,-6.571 93.8476,-10.539 38.796,-4.904 82.9283,-14.188 119.7403,-27.336 -0.588,-18.748 -6.5673,-34.0199 -9.2793,-52.0839 -2.108,-14.04 -0.9967,-28.5565 -3.0567,-42.7325 -8.252,-56.752 -19.9513,-117.383 -32.8633,-173.291 -2.1759,-12.7398 -3.8605,-31.9686 -10.4004,-42.9726 -12.932,-49.988 -19.2118,-102.9593 -28.9238,-153.6993 l -1.8164,-14.0917 c -1.536,-8.28 -4.7998,-15.9886 -6.3398,-24.3086 l -22.293,-141.0606 c -7.58,-45.808 -17.9589,-92.0719 -27.7109,-137.5039 -6.464,-30.112 -17.6119,-59.0361 -24.5039,-89.0801 -20.376,-91.8 -37.9607,-184.2002 -52.7247,-277.0722 0.256,-4.012 0.3791,-2.0119 -0.5449,-6.4356 -3.4919,-16.6957 -4.8269,-33.5427 -9.3828,-50.0625 v 0 c -9.844,-32.02 -22.1524,-83.368 -26.3164,-116.5 -2.9,-23.076 -0.8159,-45.5996 -6.7519,-68.4356 l -2.1036,-9.5527 c -8.88,-28.112 -4.8402,-56.5116 -10.9082,-85.0156 -17.304,-10.74002 -32.0725,-21.07202 -52.8125,-24.50002 -4.623,-0.764 -9.5196,-1.17836 -14.623,-1.30469 z M 1248.3791,1382.8551 c 0.079,-0.063 0.1508,-0.1259 0.2187,-0.1875 l -0.5351,0.2402 c 0.1053,-0.018 0.2111,-0.035 0.3164,-0.053 z m 1999.916,-300.3633 c 6.12,27.78 7.6201,56.3763 12.4121,84.4043 6.148,35.98 16.4194,73.3666 19.9434,109.5586 2.3519,10.4519 5.2794,21.7886 4.7715,32.5644 -0.808,17.452 5.3971,40.4193 8.6211,57.9473 4.936,26.856 9.0754,54.0123 14.6074,80.7363 4.528,21.872 10.6321,43.413 14.9961,65.293 19.532,97.284 37.4648,194.88 53.7968,292.752 l 3.8985,17.6484 26.0137,140.4668 c 5.492,30.94 8.4103,65.0716 17.4863,95.0996 -0.012,9.7279 2.0478,19.0329 3.8398,28.5527 7.712,30.476 11.9052,61.5688 17.4532,92.4688 l 26.5351,149.5117 c 3.604,20.64 3.2885,46.4319 11.0645,65.5879 -0.032,8.4039 -4.6718,13.9766 -5.3399,21.4805 -0.38,4.2639 2.152,8.896 2.832,13.0839 -3.972,-2.888 -4.333,-7.8213 -7.625,-8.6093 l -3.0625,7.0801 c -10.116,2.304 -21.8162,-0.5905 -31.3242,2.3535 -6.124,1.896 -12.7599,8.848 -18.9199,8.5 l -4.3398,-6.3321 -1.7403,0.3633 1.0508,5.9844 c -24.232,12.092 -129.4662,22.6674 -165.8262,29.0234 -22.008,3.848 -43.6961,10.1641 -65.7441,13.4961 -23,3.48 -46.5494,2.8958 -69.6094,6.2598 -16.264,2.368 -41.6229,12.1408 -57.3789,8.3008 -0.652,-0.16 -1.2683,-0.4537 -1.9043,-0.6817 l -2.041,-5.3066 -2.623,1.0078 1.8164,5.5996 c -9.3,9.852 -50.3015,11.5845 -64.6055,14.4805 l -30.8984,5.7832 c -46.932,4.764 -93.7485,16.9043 -140.1485,25.5683 l -79.9765,14.7891 c -12.568,2.236 -25.7161,3.2719 -38.0801,6.2559 -5.708,1.376 -10.9123,3.3954 -15.7403,6.7714 l -10.6992,0.7442 -90.3008,16.9277 -111.664,22.9239 c -10.896,2.12 -22.0467,2.8555 -32.8867,5.1035 -3.26,0.236 -7.3565,-0.01 -10.3125,1.3652 -13.516,1.28 -29.4724,1.4347 -42.4004,5.4707 l -1.5235,0.5371 c -51.632,9.68 -104.3206,15.5924 -155.9726,25.4004 l -137.9883,28.3867 -168.0957,33.6875 c -16.056,3.204 -32.3951,5.1883 -48.3711,8.7403 -23.4,5.204 -45.9845,13.7441 -69.3965,18.9121 -23.8,5.256 -47.8675,9.1331 -71.5195,15.1211 -23.424,5.932 -46.3476,13.7243 -69.8516,19.4043 -22.428,5.424 -49.0365,8.3582 -70.1445,17.1582 l -4.3047,0.7402 -44.6992,11.5918 -2.7168,-0.416 c -20.844,5.692 -42.1,8.2696 -62.916,13.5976 -15.716,4.024 -30.8313,10.1238 -46.5313,14.2598 l -97.9004,22.959 c -29.512,6.98 -58.8596,15.1411 -88.5156,21.4531 -23.22,4.944 -47.1286,6.7036 -70.2246,12.0156 -19.512,4.488 -38.5085,11.3354 -57.8965,16.3594 -22.624,5.864 -45.6277,10.1762 -68.2637,15.9922 -25.528,6.56 -51.84743,14.8315 -78.27143,16.2715 -2.368,-2.488 -1.87149,-3.5398 -2.27149,-6.8438 -3.576,2.824 -3.24428,6.9172 -6.98828,8.3692 -19.176,7.448 -45.49181,6.184 -66.00781,11.416 -11.332,2.892 -20.29306,10.859 -31.78906,12.791 l -2.83204,-1.2793 c -6.172,-18.92 -6.451,-41.6413 -8.375,-61.4453 -1.23998,-8.1719 -4.67594,-16.3187 -7.33593,-24.1426 1.452,-24.2 -6.84485,-51.0214 -11.46485,-74.7734 -6.352,-32.652 -12.66062,-65.6279 -18.14062,-98.4239 L 695.21894,2030.607 665.88691,1854.3746 c -4.264,-27.16 -5.12742,-60.3466 -13.60742,-86.0586 -1.55596,-8.2118 -2.98918,-16.4434 -4.28515,-24.6992 v 0 c -0.24,-13.344 -4.89947,-28.719 -7.35547,-41.955 l -14.88086,-85.2129 0.11718,-2.836 c -5.056,-19.3 -7.83314,-38.1033 -8.86914,-58.0273 46.512,0.396 93.65725,-12.4641 139.28125,-20.8281 l 214.48438,-37.6836 459.29102,-73.1719 311.1484,-60.752 208.7188,-39.4804 c 42.72,-8.348 84.9165,-16.1686 126.8965,-27.8926 5.7039,-0.32 11.3317,-1.7841 16.9277,-2.9121 35.3,-7.3 70.5127,-15.8879 105.9687,-22.2559 49.112,-8.82 102.3841,-15.3483 149.8321,-30.4043 l 23.0605,-2.875 c 18.092,0.76 81.4587,-15.4686 102.4707,-19.8886 l 20.625,-2.4473 132.8164,-24.7051 c 19.82,-3.68 41.4065,-6.0347 60.4785,-12.3867 l 5,1.0469 c 9.552,-2.904 19.7527,-4.3472 29.5567,-6.2832 16.5798,-1.668 32.6407,-5.1035 48.8926,-8.6914 36.28,-2.776 72.9786,-11.7366 108.8906,-17.8926 93.048,-15.952 185.4041,-35.3634 278.6601,-50.0234 29.28,-4.6 58.5691,-12.5285 88.2891,-13.5645 z m -348.0527,214.959 c -18.5701,0.5215 -37.4105,2.4355 -56.3965,5.3125 -64.768,9.812 -134.8063,36.2631 -175.1543,90.8711 -29.444,39.856 -42.1847,96.5013 -34.3887,145.2773 l 0.9922,4.9551 c 3.872,23.108 8.0756,46.2054 11.5996,69.3613 l 59.6836,349.8223 4.7129,32.457 21.5996,119.6328 c 2.968,16.3898 5.8845,33.4011 9.5098,50.3457 1e-4,7e-4 -2e-4,0 0,0 10.8759,50.8343 28.126,101.052 72.2344,131.9668 3.5379,2.48 7.6274,5.3105 11.8593,7.8555 4.232,2.5449 8.6069,4.8045 12.7168,6.1445 24.704,12.78 56.4869,21.9199 84.3789,22.6719 52.7034,6.9439 106.9225,-5.1749 158.5059,-14.8828 v 0 c 13.46,-4.532 26.8855,-8.9162 39.8575,-14.7442 15.9513,-5.9358 31.9423,-19.5681 45.9179,-29.416 v 0 c 16.156,-8.424 30.528,-26.4715 39.916,-41.7715 53.904,-87.844 34.9987,-180.9974 12.3867,-275.1094 l -10.916,-64.1757 -48.707,-251.2071 c -11.468,-63.104 -20.2879,-146.4368 -39.3399,-205.6328 -7.964,-24.748 -21.404,-52.6632 -39.416,-71.6152 -6.9679,-9.2959 -15.9327,-16.5327 -25.0605,-23.5606 -47.505,-35.151 -100.7859,-46.125 -156.4961,-44.5605 z m -386.375,80.8613 c -44.784,-2.28 -154.7847,19.1144 -203.6367,28.3984 -16.7438,2.596 -34.9399,1.6969 -48.0079,13.5723 l -3.7636,13.0957 c 2.8439,42.4513 2.9124,87.2303 2.3125,129.8496 v 0 0 c 1.496,18.9318 3.3631,37.8392 4.5351,56.795 3.948,53.312 6.6127,107.2725 7.1367,160.7285 0.328,33.336 -1.7178,67.4922 0.2422,100.6562 l -0.4746,69.291 c -20.156,-42.884 -34.8323,-90.1144 -52.4043,-134.2304 -26.26,-65.924 -55.5352,-130.8296 -79.6152,-197.6016 -12.624,-35.004 -43.2496,-139.6586 -58.1856,-162.5586 -4.244,-2.8 -8.2588,-2.9933 -13.2148,-3.1133 -31.748,-0.772 -120.8161,19.3677 -156.0801,25.6797 -15.908,2.848 -32.7195,3.5929 -48.1875,8.2969 -6.948,2.112 -11.8488,4.7928 -17.1328,9.7168 -2.232,25.5 12.8113,111.1429 20.4473,138.3789 3.2399,20.9037 7.8521,59.0473 13.4219,87.0859 1.8565,9.3462 3.821,17.5681 5.875,23.6563 v 0 l 4.1875,26.3047 c 6.6439,39.7918 15.2954,79.2757 21.5234,119.1074 0.912,6.192 1.56,12.6204 2.832,18.7364 l 28.3574,167.7793 c 1.86,11.0278 3.4913,22.1353 6.0313,33.0312 v 0 c 2.44,19.8517 4.5445,40.0859 10.1523,59.3457 v 0 c 1.932,16.5479 5.6444,32.9278 8.9004,49.2637 5.768,36.4877 11.4516,73.2106 18.4395,109.4863 v 0 c 4.0759,27.4758 8.9568,54.8238 14.6367,82.0156 l 4.1113,26.627 4.6035,24.7246 6.3047,32.3925 52.8164,-8.5 11.9239,-2.4121 c 16.3118,-0.616 75.8662,-9.7798 89.0312,-16.8398 l 2.4395,-1.7852 c 2.3999,-6.1079 0.5008,-10.4154 -0.7032,-16.7793 -4.7839,-32.2556 -10.2077,-64.4154 -16.2636,-96.455 l -6.1485,-38.1817 c -18.696,-107.232 -35.9074,-215.3799 -57.2754,-322.0879 l -0.7812,-3.0195 c -1.204,-19.8638 -6.6397,-40.299 -10.3477,-59.8828 l -2.5273,-12.8965 c -2.432,-29.9674 -28.8791,-101.2695 -16.8008,-125.9629 l 34.9727,92.5703 96.3359,254.8809 c 3.8,11.1598 7.3963,22.3838 12.1563,33.1797 9.124,23.392 58.807,170.7507 70.623,179.1347 21.484,5.232 92.0838,-4.4189 112.6758,-13.7109 3.432,-172.932 15.8966,-345.5116 26.2246,-518.0996 2.06,-17.544 4.481,-35.128 5.709,-52.752 10.396,23.984 11.56,56.0556 16.332,82.0996 l 36.627,205.0391 c 5.576,31.632 8.5521,67.2014 17.9921,97.7734 2.176,20.1639 6.2478,40.2118 9.7598,60.1836 0.672,6.028 1.1568,12.0152 2.8008,17.8711 5.7319,33.2597 18.6681,141.8706 33.1719,165.0762 6.7319,4.092 9.6638,4.0289 17.3476,2.125 l 4.4473,-1.1562 13.2598,-2.4883 c 26.1557,-4.84 52.616,-7.604 78.7597,-12.4199 v 0 c 2.1169,-0.272 4.1763,-0.5058 6.1719,-0.8047 5.9866,-0.8968 11.3854,-2.3763 15.9394,-7.2032 4.112,-24.4158 -15.7198,-109.36 -21.7519,-137.5566 l -0.3243,-0.9805 c -0.432,-19.5597 -6.5764,-41.5714 -9.6484,-61.1152 -7.028,-44.7517 -13.2162,-89.748 -22.0801,-134.1797 -16.156,-102.792 -28.7198,-207.2453 -49.6758,-309.1133 -0.848,-8.8038 -2.3797,-17.6384 -3.5957,-26.4023 l -2.4355,-12.1563 c -3.804,-34.5199 -11.3999,-68.9132 -16.3399,-103.3652 l -17.7987,-115.2715 c -2.812,-30.292 -9.6272,-63.2032 -16.3672,-92.8672 z m 388.2109,64.9063 c 12.0813,0.6549 24.285,3.6268 36.957,9.9043 a 168.48,168.48 0 0 1 13.2266,7.3398 c 3.828,8.16 7.485,18.9572 12.625,26.1172 1.572,5.4719 3.4912,11.0751 4.6992,16.623 13.832,52.436 21.8847,106.777 31.8047,160.045 l 48.0645,255.8925 c 7.376,39.04 11.6641,79.5665 22.1601,117.8985 4.436,21.7918 9.1753,43.4771 11.4473,65.6289 2.024,18.952 0.016,34.0804 -12.3516,49.6484 -18.036,22.688 -50.1198,30.7637 -77.8398,33.0957 -26.9,2.256 -46.3327,-3.2889 -68.0567,-18.7929 l -2.7363,-2.668 c -16.196,-27.844 -17.7562,-55.8721 -26.8242,-85.8281 l -0.584,-1.8711 -6.9785,-41.7012 c -3.728,-25.444 -8.704,-50.9425 -13.832,-76.1465 -0.472,-7.524 -2.3732,-15.3641 -3.6172,-22.8281 -2.804,-25.7677 -8.3878,-52.6286 -14.2637,-77.9043 -1.392,-20.676 -7.9082,-43.3928 -11.7402,-63.8848 l -26.0606,-149.6113 c -5.708,-33.756 -13.3397,-68.4403 -14.6797,-102.6563 -0.608,-15.572 0.697,-29.8273 4.041,-45.0273 5.204,-11.78 10.3284,-22.4084 19.4844,-31.6484 2.5,-1.582 4.8918,-3.1545 7.2188,-4.8164 2.3269,-1.662 4.5882,-3.4135 6.8242,-5.3555 21.0775,-7.2 40.8762,-12.5447 61.0117,-11.4531 z m -1153.8594,80.7011 c -4.788,0.044 -9.389,0.632 -14.125,1.252 -56.464,6.988 -110.931,20.2115 -166.791,30.0195 -43.08,7.564 -96.6557,12.1929 -137.7637,25.0449 -18.38,2.308 -59.1931,4.7154 -70.8691,20.6914 -3.392,4.648 -0.54,14.6797 0.5,20.2637 l 43.3125,225.5039 c 2.376,13.6479 3.88,28.4234 7.6719,41.6992 v 0 c 9.14,66.488 25.0078,131.9709 35.5918,198.2109 l 2.709,13.7559 62.791,335.9394 c 6.48,33.696 17.2651,116.2565 32.2051,143.0645 32.844,0.84 105.8881,-17.6596 142.5761,-25.0996 l 111.5996,-20.9551 1.3907,-0.1562 c 11.7639,-2.804 23.6921,-4.8532 35.5839,-7.0371 l 19.709,-3.295 c 14.576,0.9 69.3245,-10.648 79.8965,-19 3.724,-19.988 -12.208,-93.6159 -18.168,-116.0039 l -0.2597,-1.0683 c -0.528,-7.68 -0.7764,-15.3235 -5.1524,-21.8555 -1.656,-0.972 -3.1086,-2.4401 -4.9726,-2.9121 -12.6,-3.204 -136.2759,23.1227 -157.6719,26.3867 l -78.416,9.7813 c -11.1,-55.124 -18.4114,-112.8167 -26.0234,-168.5567 -3.452,-25.288 -4.7638,-52.1637 -11.3438,-76.8437 l -2.9238,-27.4082 c 10.9038,-2.764 21.8393,-5.0366 32.8711,-7.2286 31.34,-3.58 62.6525,-11.0597 93.7285,-16.5117 12.612,-2.216 27.9913,-2.1831 39.9433,-6.3711 4.936,-1.728 9.0242,-4.2679 10.9122,-9.4199 3.768,-10.284 -17.8684,-134.8049 -23.0684,-148.2969 -1.3,-3.38 -4.0197,-9.1842 -7.0957,-11.3242 -17.4,-12.088 -149.4805,32.7646 -178.8965,20.3086 -7.016,-10.024 -40.4837,-213.0933 -39.6797,-231.6133 l 5.0567,-7.1074 c 3.9259,-0.19 7.9011,-0.6422 11.8984,-1.2559 11.992,-1.841 24.1854,-5.1301 35.8613,-7.1191 33.6838,-5.7319 67.8922,-10.344 101.252,-17.6719 l 2.4004,1.1035 c 10.4879,-3.7519 23.1316,-5.1956 34.1035,-7.3476 4.756,-0.6 10.1157,-1.1089 14.6797,-2.5449 2.88,-0.9 5.8635,-2.9719 6.7715,-5.92 5.308,-17.244 -14.155,-126.7115 -21.795,-143.1035 z m -676.6562,136.0645 c -19.8012,-0.2357 -39.4999,0.9395 -58.5449,3.1035 -39.72003,4.516 -78.85076,12.5117 -118.30276,18.6797 -28.616,4.472 -59.35647,5.9407 -86.98047,14.9687 -7.916,2.588 -13.0433,4.9386 -18.2793,11.4746 -4.66,21.0881 29.37113,192.7497 35.70313,228.0977 1.92397,11.8359 3.43624,23.8834 6.66015,35.4473 l 27.41211,152.3476 c 6.064,32.592 10.72891,65.3689 18.12891,97.7129 4.87594,36.1276 10.37085,72.6113 18.63867,108.1309 l 14.57617,88.9082 c 1.88798,13.4918 3.25977,27.3834 6.84766,40.5312 3.604,25.772 7.8845,52.7005 14.3125,77.8965 a 959.51,959.51 0 0 0 11.04492,67.2442 c 3.212,16.244 8.69983,33.2561 10.42383,49.5761 1.99598,8.9479 3.72287,17.9522 6.88281,26.5801 11.55186,-3.136 26.12387,-4.4197 36.92383,-8.6836 54.12794,-10.18 108.77334,-19.5686 162.69334,-30.5566 l 35.2676,-7.0996 c 20.78,-3.952 41.787,-8.1516 61.791,-15.1036 l 11.6367,-4.4121 c 12.396,-3.968 24.7441,-9.8407 36.0801,-16.2207 31.612,-17.796 74.9007,-56.5397 84.8887,-92.6797 l 3.8515,-3.8164 c 0.856,-9.824 5.343,-20.3551 8.295,-29.7871 l 2.7402,-19.2441 c 8.408,-29.012 2.9769,-76.0365 -3.6231,-105.1445 -0.9959,-6.984 -2.5245,-13.9566 -3.8125,-20.8965 l -3.0761,-17.6309 c -5.356,-46.0997 -15.4165,-92.0521 -23.8965,-137.6719 l -0.2949,-3.0078 c -7.5319,-41.6753 -10.0644,-86.9202 -22.3399,-127.3437 v 0 c 0.244,-2.236 0.3763,-2.7876 0.2403,-5.3476 -1.592,-29.4 -9.7404,-61.2068 -14.8204,-90.3028 -14.556,-83.436 -24.1809,-177.1973 -94.8769,-234.1933 -46.452,-37.449 -106.7879,-50.8477 -166.1914,-51.5547 z m -0.584,146.5723 c 17.6018,0.9349 34.3573,5.778 48.9688,18.3945 36.628,31.628 44.1152,108.3767 49.6152,153.7207 l 1.9004,3.3633 c 1.604,13.1398 3.879,25.9443 6.5429,38.9082 0.952,8.4318 2.439,16.85 4.211,25.2148 v 0 c 1.7718,8.3641 3.8301,16.6754 5.9219,24.8906 3.8319,25.7077 7.8154,52.2326 14.2793,77.4043 10.264,63.368 24.1333,126.005 34.3613,189.373 3.396,21.064 9.0989,41.94 8.5469,63.42 -0.456,17.836 -4.8197,35.1086 -15.1797,49.8086 -26.724,37.92 -79,45.9865 -121.752,52.6425 -5.172,0.804 -10.3678,0.8723 -15.5918,0.6563 -1.636,-16.216 -3.2755,-32.7673 -6.8554,-48.6953 l -0.7696,-6.6485 -22.8222,-136.3398 c -1.348,-9.8519 -3.253,-19.5799 -5.129,-29.3399 l -46.4042,-269.7597 c -3.636,-25.6439 -7.9159,-51.1933 -12.83988,-76.6211 -4.5,-40.212 -13.90402,-79.8958 -18.91602,-120.1758 l 2.85156,-0.2148 c 28.03504,-2.2625 59.72414,-11.5622 89.06054,-10.0039 z" />
  <defs
     id="defs17" />
  <defs
     id="defs20" />
  <defs
     id="defs33" />
  <defs
     id="defs40" />
  <defs
     id="defs58" />
  <defs
     id="defs79" />
  <defs
     id="defs85" />
  <defs
     id="defs97" />
  <defs
     id="defs155" />
  <defs
     id="defs164" />
  <defs
     id="defs174" />
  <defs
     id="defs223" />
  <defs
     id="defs236" />
  <defs
     id="defs258" />
  <defs
     id="defs260" />
  <defs
     id="defs270" />
  <defs
     id="defs272" />
  <defs
     id="defs274" />
  <defs
     id="defs280" />
  <defs
     id="defs282" />
  <defs
     id="defs302" />
  <defs
     id="defs304" />
  <defs
     id="defs311" />
  <defs
     id="defs316" />
  <defs
     id="defs318" />
  <defs
     id="defs320" />
</svg>
